<?xml version="1.0" standalone="no"?>
<!DOCTYPE svg PUBLIC "-//W3C//DTD SVG 20010904//EN"
 "http://www.w3.org/TR/2001/REC-SVG-20010904/DTD/svg10.dtd">
<svg version="1.0" xmlns="http://www.w3.org/2000/svg"
 width="759.000000pt" height="272.000000pt" viewBox="0 0 759.000000 272.000000"
 preserveAspectRatio="xMidYMid meet">

<g transform="translate(0.000000,272.000000) scale(0.100000,-0.100000)"
fill="#000000" stroke="none">
<path d="M1454 2066 c-89 -17 -135 -32 -198 -63 -61 -31 -147 -111 -181 -168
l-25 -43 -47 15 c-31 10 -90 16 -168 17 -106 1 -125 -2 -162 -21 -60 -33 -97
-84 -134 -187 -48 -135 -96 -245 -131 -299 -26 -41 -29 -52 -20 -72 7 -14 23
-27 39 -31 68 -15 63 -5 63 -130 0 -113 1 -116 28 -144 21 -20 42 -30 82 -35
59 -8 100 -39 100 -75 0 -16 5 -21 23 -18 28 4 34 36 12 77 -21 42 -53 60
-113 68 -82 9 -91 25 -94 168 l-3 120 -40 9 -41 9 42 84 c24 47 64 143 90 214
39 107 54 136 85 164 51 46 122 60 232 46 139 -17 132 -9 128 -139 -5 -178 39
-290 166 -422 71 -73 73 -76 73 -127 0 -28 3 -59 6 -68 11 -27 58 -44 155 -55
52 -6 102 -14 113 -17 33 -9 -4 -23 -64 -23 -107 0 -156 -29 -142 -83 8 -30
75 -56 177 -69 86 -10 98 -10 113 5 24 25 7 34 -91 46 -48 7 -100 17 -115 23
-25 10 -26 11 -7 18 11 5 43 9 70 9 60 1 115 16 127 33 28 45 -15 93 -90 103
-197 24 -204 28 -195 104 l5 47 -83 85 c-136 136 -193 293 -160 444 l6 29 38
-39 c48 -49 87 -132 125 -263 16 -56 37 -113 46 -127 24 -36 63 -59 108 -61
35 -1 42 -6 60 -40 44 -84 114 -127 194 -122 45 3 48 5 56 35 10 38 26 48 91
56 101 14 127 54 127 196 l0 99 42 14 c56 19 68 40 45 75 -33 50 -89 176 -129
286 -21 60 -44 120 -52 135 -18 35 -62 75 -106 97 -45 23 -183 29 -276 11z
m266 -69 c52 -26 70 -57 126 -212 20 -55 54 -137 75 -182 22 -45 39 -84 39
-87 0 -3 -15 -6 -33 -6 -53 0 -57 -11 -57 -146 0 -140 -1 -142 -83 -155 -55
-9 -95 -33 -113 -68 -6 -12 -13 -24 -16 -26 -9 -10 -73 18 -101 44 -26 24 -63
80 -55 85 38 21 125 86 143 108 64 76 -2 188 -110 188 -80 0 -105 -40 -105
-170 0 -87 -1 -90 -23 -90 -47 0 -65 26 -102 148 -47 149 -94 239 -157 297
l-49 47 31 49 c53 82 122 133 227 168 134 45 284 48 363 8z m-155 -521 c71
-30 65 -77 -17 -136 -65 -47 -71 -43 -66 46 3 60 7 79 23 90 23 17 18 17 60 0z"/>
<path d="M1611 1718 c-5 -13 -18 -44 -30 -71 -22 -51 -19 -77 9 -77 20 0 74
115 68 146 -5 28 -36 30 -47 2z"/>
<path d="M1357 1703 c-14 -14 -6 -40 33 -100 39 -62 65 -78 76 -48 4 8 -12 46
-35 85 -39 65 -57 80 -74 63z"/>
<path d="M1762 1564 c-62 -46 -76 -69 -46 -81 19 -7 49 9 105 56 38 34 42 40
30 55 -7 9 -17 16 -20 16 -4 0 -35 -21 -69 -46z"/>
<path d="M2655 1797 c-106 -36 -189 -108 -235 -204 -31 -65 -38 -180 -16 -255
47 -164 213 -279 381 -265 83 6 179 51 233 108 l42 43 0 163 0 163 -160 0
-160 0 0 -65 0 -65 95 0 95 0 0 -73 c0 -83 -6 -92 -80 -126 -86 -39 -189 -19
-257 51 -152 155 -48 406 167 407 49 1 122 -28 157 -61 l22 -20 51 43 52 44
-38 34 c-64 55 -137 83 -229 87 -49 2 -96 -1 -120 -9z"/>
<path d="M3425 1797 c-106 -36 -179 -98 -232 -199 -25 -48 -28 -63 -28 -153 0
-93 2 -105 33 -167 65 -133 179 -202 332 -202 74 -1 93 3 150 30 194 92 270
304 179 500 -31 66 -107 140 -177 171 -69 31 -193 41 -257 20z m195 -138 c78
-35 124 -92 139 -173 32 -173 -120 -316 -292 -275 -40 9 -63 23 -102 63 -55
55 -75 103 -75 177 1 160 183 275 330 208z"/>
<path d="M4830 1790 c-72 -27 -127 -66 -172 -126 -53 -68 -73 -132 -73 -229 0
-69 5 -90 32 -147 39 -84 97 -142 181 -181 59 -28 77 -32 152 -31 149 0 260
66 331 196 33 60 34 67 34 168 0 96 -2 110 -28 159 -70 132 -178 202 -322 208
-62 3 -92 -1 -135 -17z m201 -125 c126 -45 192 -196 138 -315 -43 -96 -117
-144 -220 -145 -56 0 -73 4 -114 30 -168 104 -156 339 20 421 58 28 115 30
176 9z"/>
<path d="M5995 1797 c-106 -36 -179 -98 -232 -199 -25 -48 -28 -63 -28 -153 0
-93 2 -105 32 -166 77 -156 254 -240 422 -199 63 15 157 74 193 122 l28 36
-51 38 -50 37 -37 -36 c-102 -97 -231 -101 -331 -11 -104 93 -109 245 -11 342
93 94 234 95 332 4 l47 -44 51 37 50 37 -20 28 c-28 40 -90 86 -147 112 -59
27 -189 34 -248 15z"/>
<path d="M4039 1435 l136 -355 61 0 61 0 118 308 c65 169 127 329 137 355 l18
48 -72 -3 -72 -3 -92 -238 c-51 -132 -94 -241 -97 -243 -2 -2 -46 106 -98 241
l-94 245 -71 0 -72 0 137 -355z"/>
<path d="M5460 1435 l0 -355 65 0 65 0 0 355 0 355 -65 0 -65 0 0 -355z"/>
<path d="M6540 1435 l0 -355 230 0 230 0 0 65 0 65 -165 0 -165 0 0 105 0 105
145 0 145 0 0 65 0 64 -142 3 -143 3 -3 53 -3 52 170 0 171 0 0 65 0 65 -235
0 -235 0 0 -355z"/>
</g>
</svg>
