<svg width="20" height="20" viewBox="0 0 20 20" fill="none" xmlns="http://www.w3.org/2000/svg">
<path d="M5.58934 4.41076C5.2639 4.08533 4.73626 4.08533 4.41083 4.41076C4.08539 4.7362 4.08539 5.26384 4.41083 5.58928L8.82158 10L4.41085 14.4108C4.08541 14.7362 4.08541 15.2638 4.41085 15.5893C4.73629 15.9147 5.26392 15.9147 5.58936 15.5893L10.0001 11.1785L14.4108 15.5893C14.7363 15.9147 15.2639 15.9147 15.5893 15.5893C15.9148 15.2638 15.9148 14.7362 15.5893 14.4108L11.1786 10L15.5894 5.58928C15.9148 5.26384 15.9148 4.7362 15.5894 4.41077C15.2639 4.08533 14.7363 4.08533 14.4109 4.41077L10.0001 8.82152L5.58934 4.41076Z" fill="#33383F"/>
</svg>
