<svg width="25" height="25" viewBox="0 0 25 25" fill="none" xmlns="http://www.w3.org/2000/svg">
<path d="M17.1959 6.22449L14.0959 3.82449C13.6959 3.42449 12.7959 3.22449 12.1959 3.22449H8.39588C7.19588 3.22449 5.89588 4.12449 5.59588 5.32449L3.19588 12.6245C2.69588 14.0245 3.59588 15.2245 5.09588 15.2245H9.09588C9.69588 15.2245 10.1959 15.7245 10.0959 16.4245L9.59588 19.6245C9.39588 20.5245 9.99588 21.5245 10.8959 21.8245C11.6959 22.1245 12.6959 21.7245 13.0959 21.1245L17.1959 15.0245" stroke="#292D32" stroke-width="1.5" stroke-miterlimit="10"/>
<path d="M22.2959 6.22446V16.0245C22.2959 17.4245 21.6959 17.9245 20.2959 17.9245H19.2959C17.8959 17.9245 17.2959 17.4245 17.2959 16.0245V6.22446C17.2959 4.82446 17.8959 4.32446 19.2959 4.32446H20.2959C21.6959 4.32446 22.2959 4.82446 22.2959 6.22446Z" stroke="#292D32" stroke-width="1.5" stroke-linecap="round" stroke-linejoin="round"/>
</svg>
