<svg width="40" height="40" viewBox="0 0 40 40" fill="none" xmlns="http://www.w3.org/2000/svg">
<rect x="1" y="1" width="38" height="38" rx="7" fill="#FCFCFC"/>
<path fill-rule="evenodd" clip-rule="evenodd" d="M18.2356 18.9274C18.7182 19.3065 19 19.8863 19 20.5V27.1761L21 26.4724V20.5C21 19.8863 21.2818 19.3065 21.7644 18.9274L27.6178 14.3282C27.8591 14.1386 28 13.8488 28 13.5419V12H12V13.5419C12 13.8488 12.1409 14.1386 12.3822 14.3282L18.2356 18.9274ZM28.8535 15.9008L23 20.5V27.1806C23 27.605 22.7322 27.9831 22.3319 28.124L18.3319 29.5314C17.6815 29.7602 17 29.2776 17 28.5881V20.5L11.1465 15.9008C10.4227 15.3321 10 14.4625 10 13.5419V12C10 10.8954 10.8954 10 12 10H28C29.1046 10 30 10.8954 30 12V13.5419C30 14.4625 29.5773 15.3321 28.8535 15.9008Z" fill="#6F767E"/>
<rect x="1" y="1" width="38" height="38" rx="7" stroke="#EFEFEF" stroke-width="2"/>
</svg>
