<svg width="18" height="18" viewBox="0 0 18 18" fill="none" xmlns="http://www.w3.org/2000/svg">
<path fill-rule="evenodd" clip-rule="evenodd" d="M12.3334 7.33329C13.2539 7.33329 14.0001 6.5871 14.0001 5.66663C14.0001 4.74615 13.2539 3.99996 12.3334 3.99996C11.4129 3.99996 10.6667 4.74615 10.6667 5.66663C10.6667 6.5871 11.4129 7.33329 12.3334 7.33329Z" fill="#030303"/>
<path fill-rule="evenodd" clip-rule="evenodd" d="M0.666748 3.16663C0.666748 1.78591 1.78604 0.666626 3.16675 0.666626L14.8334 0.666626C16.2141 0.666626 17.3334 1.78591 17.3334 3.16663V14.8333C17.3334 16.214 16.2141 17.3333 14.8334 17.3333H3.16675C1.78604 17.3333 0.666748 16.214 0.666748 14.8333L0.666748 3.16663ZM3.16675 2.33329H14.8334C15.2937 2.33329 15.6667 2.70639 15.6667 3.16663V14.8333C15.6667 15.0232 15.6032 15.1983 15.4963 15.3384C15.4707 15.3044 15.4431 15.2711 15.4133 15.2386L7.80762 6.94152C6.78489 5.82581 5.01313 5.86763 4.04418 7.03037L2.33341 9.08329V3.16663C2.33341 2.70639 2.70651 2.33329 3.16675 2.33329ZM2.33341 11.6867V14.8333C2.33341 15.2935 2.70651 15.6666 3.16675 15.6666H13.5447L6.57903 8.06773C6.23812 7.69582 5.64753 7.70977 5.32455 8.09734L2.33341 11.6867Z" fill="#030303"/>
</svg>
