<svg width="21" height="23" viewBox="0 0 21 23" fill="none" xmlns="http://www.w3.org/2000/svg">
<path d="M2.96029 22.3873H18.2469C18.8261 22.3873 19.3815 22.1572 19.7911 21.7477C20.2006 21.3382 20.4307 20.7827 20.4307 20.2035V10.3764C20.4315 10.2327 20.404 10.0903 20.3496 9.95723C20.2953 9.8242 20.2152 9.7032 20.114 9.60117L11.3788 0.865978C11.1743 0.662611 10.8975 0.548462 10.609 0.548462C10.3206 0.548462 10.0438 0.662611 9.83925 0.865978L1.10406 9.60117C1.00089 9.7023 0.918809 9.82289 0.86258 9.95597C0.806351 10.089 0.777089 10.232 0.776489 10.3764V20.2035C0.776489 20.7827 1.00657 21.3382 1.41611 21.7477C1.82565 22.1572 2.38111 22.3873 2.96029 22.3873ZM8.41978 20.2035V14.744H12.7874V20.2035H8.41978ZM2.96029 10.8241L10.6036 3.1808L18.2469 10.8241V20.2035H14.9712V14.744C14.9712 14.1648 14.7411 13.6094 14.3316 13.1998C13.922 12.7903 13.3666 12.5602 12.7874 12.5602H8.41978C7.8406 12.5602 7.28515 12.7903 6.87561 13.1998C6.46606 13.6094 6.23599 14.1648 6.23599 14.744V20.2035H2.96029V10.8241Z" fill="#545454"/>
</svg>
