<svg width="25" height="25" viewBox="0 0 25 25" fill="none" xmlns="http://www.w3.org/2000/svg">
<path d="M7.5827 18.9244L10.6827 21.3244C11.0827 21.7244 11.9827 21.9244 12.5827 21.9244H16.3827C17.5827 21.9244 18.8827 21.0244 19.1827 19.8244L21.5827 12.5244C22.0827 11.1244 21.1827 9.92443 19.6827 9.92443H15.6827C15.0827 9.92443 14.5827 9.42443 14.6827 8.72443L15.1827 5.52443C15.3827 4.62443 14.7827 3.62443 13.8827 3.32443C13.0827 3.02443 12.0827 3.42443 11.6827 4.02443L7.5827 10.1244" stroke="#292D32" stroke-width="1.5" stroke-miterlimit="10"/>
<path d="M2.48273 18.9245V9.12449C2.48273 7.72449 3.08273 7.22449 4.48273 7.22449H5.48273C6.88273 7.22449 7.48273 7.72449 7.48273 9.12449V18.9245C7.48273 20.3245 6.88273 20.8245 5.48273 20.8245H4.48273C3.08273 20.8245 2.48273 20.3245 2.48273 18.9245Z" stroke="#292D32" stroke-width="1.5" stroke-linecap="round" stroke-linejoin="round"/>
</svg>
