<svg width="137" height="112" viewBox="0 0 137 112" fill="none" xmlns="http://www.w3.org/2000/svg">
<path d="M134.754 4.63991C133.621 3.08514 132.058 1.83696 130.236 1.03264C128.415 0.228396 126.405 -0.101132 124.428 0.0806141L10.1884 11.402C8.07596 11.5812 6.08788 12.3395 4.47524 13.581C2.8626 14.8224 1.69777 16.4914 1.12789 18.3771C0.558 20.2629 0.608629 22.2805 1.27332 24.1757C1.93808 26.0709 3.18703 27.7583 4.86249 29.0253L45.3679 58.3919L59.0669 104.14C59.6265 105.935 60.7082 107.567 62.1914 108.851C63.6746 110.136 65.5013 111.023 67.466 111.414L68.2011 111.563C70.3332 111.846 72.487 111.529 74.3835 110.654C76.2798 109.78 77.8311 108.387 78.8352 106.658L135.237 15.1112C136.232 13.5338 136.716 11.7122 136.63 9.85839C136.545 8.0046 135.894 6.19488 134.754 4.63991ZM12.853 21.6796L112.569 11.7947L50.7247 49.314L12.853 21.6796ZM70.148 100.807L57.0627 58.0767L118.907 20.5574L70.148 100.807Z" fill="black"/>
</svg>
