<svg width="27" height="27" viewBox="0 0 27 27" fill="none" xmlns="http://www.w3.org/2000/svg">
<path d="M22.0383 20.9642C23.2143 19.5492 24.0323 17.8718 24.423 16.0738C24.8136 14.2758 24.7655 12.4101 24.2827 10.6347C23.7998 8.8592 22.8964 7.22614 21.649 5.87365C20.4015 4.52115 18.8466 3.489 17.1159 2.86452C15.3852 2.24003 13.5295 2.04158 11.7059 2.28594C9.8822 2.53031 8.14423 3.21031 6.63897 4.26842C5.1337 5.32652 3.90542 6.73161 3.05803 8.36481C2.21065 9.99801 1.76908 11.8113 1.7707 13.6512C1.77131 16.326 2.71389 18.9151 4.43302 20.9642L4.41664 20.9782C4.47396 21.0469 4.53948 21.1059 4.59844 21.1739C4.67214 21.2582 4.75158 21.3377 4.82774 21.4196C5.05704 21.6685 5.29289 21.9076 5.5402 22.132C5.61555 22.2008 5.69334 22.2647 5.7695 22.3302C6.03156 22.5562 6.30099 22.7708 6.58024 22.9706C6.61627 22.9952 6.64903 23.0271 6.68506 23.0525V23.0427C8.60307 24.3924 10.8911 25.1168 13.2365 25.1168C15.5818 25.1168 17.8698 24.3924 19.7879 23.0427V23.0525C19.8239 23.0271 19.8558 22.9952 19.8927 22.9706C20.1711 22.77 20.4414 22.5562 20.7034 22.3302C20.7796 22.2647 20.8574 22.2 20.9327 22.132C21.18 21.9068 21.4159 21.6685 21.6452 21.4196C21.7213 21.3377 21.7999 21.2582 21.8745 21.1739C21.9326 21.1059 21.9989 21.0469 22.0563 20.9773L22.0383 20.9642ZM13.2356 7.09984C13.9645 7.09984 14.677 7.31597 15.283 7.7209C15.889 8.12583 16.3614 8.70138 16.6403 9.37475C16.9192 10.0481 16.9922 10.7891 16.85 11.5039C16.7078 12.2188 16.3568 12.8754 15.8414 13.3908C15.3261 13.9062 14.6694 14.2572 13.9546 14.3994C13.2397 14.5415 12.4988 14.4686 11.8254 14.1896C11.152 13.9107 10.5765 13.4384 10.1715 12.8324C9.76661 12.2263 9.55048 11.5139 9.55048 10.785C9.55048 9.80764 9.93874 8.8703 10.6298 8.1792C11.3209 7.4881 12.2583 7.09984 13.2356 7.09984ZM6.68997 20.9642C6.70418 19.889 7.14116 18.8625 7.90637 18.107C8.67158 17.3514 9.7035 16.9275 10.7789 16.9269H15.6924C16.7678 16.9275 17.7997 17.3514 18.5649 18.107C19.3301 18.8625 19.7671 19.889 19.7813 20.9642C17.9853 22.5827 15.6533 23.4784 13.2356 23.4784C10.818 23.4784 8.48601 22.5827 6.68997 20.9642Z" fill="#545454"/>
</svg>
